<svg width="26" height="26" viewBox="0 0 26 26" fill="none" xmlns="http://www.w3.org/2000/svg">
<path d="M6.12471 4.5H24.5L22 13.25H7.47089M23.25 18.25H8.25L5.75 2H2M9.5 23.25C9.5 23.9404 8.94035 24.5 8.25 24.5C7.55965 24.5 7 23.9404 7 23.25C7 22.5596 7.55965 22 8.25 22C8.94035 22 9.5 22.5596 9.5 23.25ZM23.25 23.25C23.25 23.9404 22.6904 24.5 22 24.5C21.3096 24.5 20.75 23.9404 20.75 23.25C20.75 22.5596 21.3096 22 22 22C22.6904 22 23.25 22.5596 23.25 23.25Z" stroke="white" stroke-width="3" stroke-linecap="round" stroke-linejoin="round"/>
</svg>
